<svg width="23" height="29" viewBox="0 0 23 29" fill="none" xmlns="http://www.w3.org/2000/svg">
<path fill-rule="evenodd" clip-rule="evenodd" d="M17.4451 23.75H3.00214C0.716668 23.75 -0.58792 21.4511 0.783368 19.8401C1.39043 19.127 1.76456 18.2811 1.86523 17.3941L2.42421 12.469C2.72563 9.81329 4.70821 7.63399 7.38619 6.71708V6.58744C7.38619 5.02036 8.65651 3.75 10.2236 3.75C11.7908 3.75 13.061 5.02036 13.061 6.58744V6.71708C15.739 7.63399 17.7216 9.81329 18.023 12.469L18.582 17.3941C18.6828 18.2811 19.0569 19.127 19.6639 19.8401C21.0351 21.4511 19.7306 23.75 17.4451 23.75ZM13.9388 26.3394C13.367 27.749 11.9193 28.75 10.2236 28.75C8.52801 28.75 7.08021 27.749 6.50849 26.3394C6.48467 26.2806 6.47363 26.2175 6.47363 26.1541C6.47363 25.8619 6.71052 25.625 7.00274 25.625H13.4445C13.7368 25.625 13.9736 25.8619 13.9736 26.1541C13.9736 26.2175 13.9626 26.2806 13.9388 26.3394Z" fill="#E1E0FF"/>
<path fill-rule="evenodd" clip-rule="evenodd" d="M16.836 11.25C19.5645 11.25 21.7765 9.01142 21.7765 6.25C21.7765 3.48858 19.5645 1.25 16.836 1.25C14.1074 1.25 11.8955 3.48858 11.8955 6.25C11.8955 9.01142 14.1074 11.25 16.836 11.25Z" fill="#FF5B69" stroke="white" stroke-width="2"/>
</svg>
