<svg width="13" height="10" viewBox="0 0 13 10" fill="none" xmlns="http://www.w3.org/2000/svg">
<path d="M5.59534 0.369216C5.53612 0.425718 5.28291 0.639065 5.07462 0.837798C3.76466 2.00292 1.62053 5.04238 0.966063 6.63322C0.860899 6.87482 0.638318 7.48563 0.624023 7.81198C0.624023 8.1247 0.697536 8.4228 0.846604 8.70726C1.05489 9.06186 1.38264 9.34632 1.7696 9.50219C2.03813 9.60253 2.84166 9.7584 2.85596 9.7584C3.73505 9.91427 5.16345 10 6.74194 10C8.24589 10 9.61609 9.91427 10.5085 9.78665C10.5227 9.77204 11.5213 9.61617 11.8633 9.44569C12.4882 9.13298 12.8762 8.52216 12.8762 7.86849V7.81198C12.8609 7.38626 12.4729 6.49099 12.4586 6.49099C11.8031 4.98587 9.76414 2.01656 8.40925 0.823186C8.40925 0.823186 8.06109 0.487092 7.84361 0.340964C7.53118 0.113006 7.14422 0 6.75725 0C6.32536 0 5.92308 0.127618 5.59534 0.369216Z" fill="#FF5B69"/>
</svg>
