<svg width="13" height="10" viewBox="0 0 13 10" fill="none" xmlns="http://www.w3.org/2000/svg">
<path d="M5.09534 9.63078C5.03612 9.57428 4.78291 9.36094 4.57462 9.1622C3.26466 7.99708 1.12053 4.95762 0.466063 3.36678C0.360899 3.12518 0.138318 2.51437 0.124023 2.18802C0.124023 1.8753 0.197536 1.5772 0.346604 1.29274C0.554891 0.938139 0.882636 0.653678 1.2696 0.497808C1.53813 0.397467 2.34166 0.241598 2.35596 0.241598C3.23505 0.0857282 4.66345 0 6.24194 0C7.74589 0 9.11609 0.0857282 10.0085 0.213346C10.0227 0.227959 11.0213 0.383829 11.3633 0.554311C11.9882 0.867024 12.3762 1.47784 12.3762 2.13151V2.18802C12.3609 2.61374 11.9729 3.50901 11.9586 3.50901C11.3031 5.01413 9.26414 7.98344 7.90925 9.17681C7.90925 9.17681 7.56109 9.51291 7.34361 9.65904C7.03118 9.88699 6.64422 10 6.25725 10C5.82536 10 5.42308 9.87238 5.09534 9.63078Z" fill="#3BF08C"/>
</svg>
