<svg width="10" height="17" viewBox="0 0 10 17" fill="none" xmlns="http://www.w3.org/2000/svg">
<path d="M9.72204 7.83666L2.15683 0.271583C1.98185 0.0964708 1.74828 0 1.49922 0C1.25017 0 1.01659 0.0964708 0.841617 0.271583L0.284491 0.82857C-0.0780341 1.19151 -0.0780341 1.78139 0.284491 2.14378L6.63719 8.49648L0.277443 14.8562C0.102468 15.0313 0.00585938 15.2648 0.00585938 15.5137C0.00585938 15.7629 0.102468 15.9963 0.277443 16.1716L0.834568 16.7284C1.00968 16.9035 1.24312 17 1.49217 17C1.74123 17 1.9748 16.9035 2.14978 16.7284L9.72204 9.15643C9.89743 8.98076 9.99376 8.74622 9.99321 8.49689C9.99376 8.24659 9.89743 8.01219 9.72204 7.83666Z" fill="#8181A5"/>
</svg>
