<svg width="24" height="26" viewBox="0 0 24 26" fill="none" xmlns="http://www.w3.org/2000/svg">
<g id="Productsmenu">
<path id="Vector" d="M9.54256 1.18635C11.053 0.271218 12.9469 0.271218 14.4573 1.18635L20.778 5.01573C21.2992 5.33149 21.7458 5.73885 22.1024 6.21017C22.1918 6.32834 22.1543 6.49582 22.0275 6.5726L12.6734 12.2398C12.2596 12.4905 11.7407 12.4905 11.3269 12.2398L1.9725 6.57241C1.84575 6.49562 1.80827 6.32814 1.89766 6.20997C2.25418 5.73875 2.70081 5.33146 3.22192 5.01573L9.54256 1.18635Z" fill="#E1E0FF"/>
<path id="Vector_2" d="M1.36668 8.18027C1.21555 8.0887 1.01922 8.17163 0.99223 8.34626C0.955428 8.58419 0.936523 8.82657 0.936523 9.07155V17.0616C0.936523 18.7202 1.80302 20.2582 3.22155 21.1177L9.54219 24.947C9.95517 25.1973 10.3968 25.379 10.8514 25.4924C11.0086 25.5316 11.1554 25.4087 11.1554 25.2467V14.8428C11.1554 14.3884 10.918 13.967 10.5294 13.7315L1.36668 8.18027Z" fill="#E1E0FF"/>
<path id="Vector_3" d="M12.8447 25.2463C12.8447 25.4083 12.9916 25.5312 13.1488 25.492C13.6031 25.3786 14.0445 25.1969 14.4572 24.9468L20.7778 21.1174C22.1964 20.258 23.0629 18.72 23.0629 17.0614V9.07132C23.0629 8.82641 23.044 8.58412 23.0072 8.34629C22.9802 8.17163 22.7839 8.0887 22.6327 8.18027L13.4708 13.7311C13.0821 13.9665 12.8447 14.3879 12.8447 14.8423V25.2463Z" fill="#E1E0FF"/>
</g>
</svg>
