<svg width="40" height="40" viewBox="0 0 40 40" fill="none" xmlns="http://www.w3.org/2000/svg">
<path id="Subtract" fill-rule="evenodd" clip-rule="evenodd" d="M40 20.0386C40 20.0258 40 20.0129 40 20C40 8.9543 31.0457 0 20 0C9.70834 0 1.23227 7.77351 0.123 17.7693L13.8603 24.4854L26.6968 13.8953L27.2042 13.4767L27.7895 13.7768L40 20.0386ZM39.8781 22.2207C38.7734 32.2213 30.2951 40 20 40C8.9543 40 0 31.0457 0 20C0 19.9785 3.3991e-05 19.957 0.000101922 19.9355L13.5606 26.5651L14.1393 26.848L14.6362 26.438L27.4622 15.8566L39.8769 22.2232L39.8781 22.2207Z" fill="#E1E0FF"/>
</svg>
